<svg width="138" height="138" viewBox="0 0 138 138" fill="none" xmlns="http://www.w3.org/2000/svg">
<path d="M61.5684 6.55257C62.6562 7.37856 63.7334 8.21899 64.7952 9.07824C66.3064 10.2109 67.8157 11.0205 69.5259 11.8133C70.0274 11.3819 70.529 10.9505 71.0457 10.5061C79.0099 3.86294 86.9942 0.124942 97.4978 0.238396C98.0763 0.232114 98.6548 0.225831 99.2508 0.219358C109.932 0.258163 119.355 4.90112 126.99 12.2417C134.892 20.911 138.352 30.8781 137.964 42.556C137.696 45.842 137.176 48.4769 136.131 51.6148C135.922 52.2546 135.714 52.8943 135.499 53.5535C133.837 58.2127 131.599 61.7272 128.405 65.4965C127.036 67.0748 127.036 67.0748 126.384 69.4849C127.628 71.5213 127.628 71.5213 129.379 73.6478C136.277 82.7862 138.856 92.1618 137.755 103.6C135.691 114.855 130.182 124.546 120.698 131.218C110.704 137.324 99.8397 139.11 88.3219 137.364C81.1655 135.529 75.1652 130.951 69.5259 126.344C66.95 127.529 64.8308 129.005 62.571 130.71C53.8449 136.906 44.3068 138.491 33.7868 137.716C23.3296 135.646 14.4883 130.625 7.79476 122.283C0.748692 111.189 -1.68305 99.6216 1.16666 86.6981C3.38761 80.4688 6.97451 75.4535 11.0438 70.2972C11.5799 69.493 12.1159 68.6889 12.6683 67.8603C12.1322 67.8603 11.5961 67.8603 11.0438 67.8603C1.82948 57.1898 -0.338965 46.927 0.311174 33.2014C1.12061 24.3585 6.53707 15.7594 13.0637 9.92066C26.7102 -1.2423 46.5398 -3.83984 61.5684 6.55257Z" fill="#070707" style="fill:#070707;fill:color(display-p3 0.0275 0.0275 0.0275);fill-opacity:1;"/>
<path d="M111.422 22.0384C115.338 25.0112 118.037 29.4092 119.575 34.0261C120.197 41.4457 120.184 47.2587 115.556 53.3321C110.692 59.0373 105.444 64.3494 100.114 69.6153C99.3536 70.3713 98.593 71.1276 97.8327 71.8842C94.6444 75.0562 91.4513 78.2232 88.255 81.387C86.6659 82.9603 85.0789 84.5357 83.4942 86.1134C82.0102 87.5904 80.523 89.0642 79.0321 90.5343C78.3637 91.2006 77.6953 91.8669 77.0067 92.5534C76.4181 93.1365 75.8296 93.7196 75.2233 94.3203C72.0201 97.9402 71.7989 101.011 71.9177 105.72C72.5972 112.22 75.7003 116.226 80.6449 120.319C87.6396 125.27 95.1674 126.603 103.59 125.51C110.464 124.051 117.034 120.189 121.182 114.468C125.115 106.697 127.461 99.1537 125.483 90.4579C123.699 85.0327 120.913 80.9296 117.164 76.6602C117.959 75.4657 117.959 75.4657 118.771 74.247C119.567 74.247 120.362 74.247 121.182 74.247C128.21 81.3009 130.285 89.5144 130.333 99.1286C130.184 107.513 126.952 114.812 121.182 120.903C113.523 128.21 105.69 130.229 95.3521 130.136C90.5301 129.964 86.6859 129.247 82.6069 126.534C81.7616 126.02 80.9162 125.506 80.0453 124.976C75.4259 121.585 72.1065 118.411 68.9449 113.663C68.6714 114.063 68.3979 114.462 68.1161 114.873C62.8862 122.21 56.9926 127.567 48.05 129.752C37.8187 131.19 29.299 130.193 20.726 124.121C15.3542 119.873 12.0114 115.174 9.47488 108.837C9.1268 107.974 8.77872 107.111 8.42009 106.223C6.45147 95.4744 8.31283 86.9009 14.3326 77.9444C17.3773 73.8978 21.0387 70.4236 24.6375 66.8784C25.4779 66.0416 26.3179 65.2043 27.1573 64.3665C29.3478 62.1831 31.5453 60.007 33.7446 57.8325C35.9956 55.6042 38.2397 53.3689 40.4844 51.1341C44.8747 46.7653 49.2726 42.4043 53.6755 38.0482C54.7364 39.11 55.7972 40.1719 56.8901 41.2659C56.4057 41.7418 55.9213 42.2178 55.4222 42.7081C50.8363 47.2175 46.2605 51.7366 41.6953 56.2669C39.3485 58.595 36.9981 60.9193 34.6389 63.235C32.358 65.474 30.0874 67.723 27.8232 69.979C26.962 70.8336 26.0974 71.6847 25.229 72.5321C18.53 79.0754 12.7199 85.7313 12.4542 95.5199C12.3642 105.173 14.6549 112.202 21.5296 119.294C27.87 124.488 34.978 126.226 43.0617 126.009C49.6494 125.295 55.9214 122.008 60.9084 117.686C64.4045 113.284 65.858 109.397 65.9814 103.759C66.0115 102.866 66.0415 101.973 66.0724 101.054C65.4447 96.1476 62.1316 92.9742 58.6575 89.6755C57.5799 88.6318 57.5799 88.6318 56.4805 87.567C54.9675 86.117 53.4501 84.6716 51.9285 83.2307C50.8587 82.1901 50.8587 82.1901 49.7672 81.1285C49.1101 80.5021 48.4529 79.8757 47.7759 79.2302C46.4427 77.4647 46.4427 77.4647 46.6368 75.6268C46.8379 75.1715 47.0391 74.7161 47.2464 74.247C49.6573 74.247 49.6573 74.247 51.3554 75.6473C51.9957 76.2906 52.636 76.9339 53.2957 77.5966C53.9986 78.3007 54.7015 79.0048 55.4257 79.7302C56.1576 80.4758 56.8895 81.2214 57.6436 81.9895C58.3723 82.7164 59.1011 83.4433 59.852 84.1922C63.3163 87.6879 66.3116 91.0125 68.9449 95.1619C69.3831 94.6634 69.8214 94.1648 70.273 93.6512C75.3031 88.0413 80.5589 82.6965 85.9188 77.4018C86.6522 76.676 87.3855 75.9502 88.1411 75.2023C91.2093 72.1676 94.2784 69.1339 97.3604 66.1133C99.6329 63.8853 101.892 61.6443 104.152 59.403C104.846 58.7275 105.54 58.0519 106.255 57.3559C110.765 52.8614 114.179 48.9025 115.208 42.4222C115.201 36.4957 114.979 31.995 110.735 27.5908C108.416 25.6407 108.416 25.6407 105.913 24.3731C105.316 24.0413 104.719 23.7094 104.104 23.3676C99.3696 22.075 94.8185 22.0237 90.3922 24.2725C89.4026 24.8392 88.4146 25.4087 87.4288 25.9819C86.0972 26.5373 84.7613 27.0837 83.4105 27.5908C82.6149 26.3962 82.6149 26.3962 81.8032 25.1775C90.6924 16.5857 100.644 15.656 111.422 22.0384Z" fill="#D5CFC9" style="fill:#D5CFC9;fill:color(display-p3 0.8353 0.8118 0.7882);fill-opacity:1;"/>
<path d="M115.989 13.2353C122.84 18.2469 127.86 24.4587 129.88 32.7724C131.195 43.1768 129.828 52.1398 123.387 60.5977C120.54 64.014 117.323 67.0694 114.125 70.156C112.839 71.3985 111.56 72.6477 110.283 73.8989C106.656 77.4515 103.022 80.9968 99.3719 84.5259C97.1286 86.6956 94.8974 88.877 92.6734 91.0663C91.8281 91.8938 90.9783 92.7169 90.124 93.5352C88.9305 94.679 87.7531 95.8371 86.578 96.9994C85.9052 97.6528 85.2325 98.3061 84.5393 98.9793C82.6305 101.584 82.3492 103.512 82.1936 106.702C82.9193 108.444 82.9193 108.444 84.2648 109.715C84.6659 110.159 85.067 110.602 85.4803 111.059C90.3877 115.041 94.9431 115.202 101.071 115.07C105.071 114.619 107.625 113.524 110.482 110.72C114.986 105.094 115.318 99.2675 114.524 92.2374C113.649 90.3009 112.698 88.8126 111.366 87.1617C110.482 85.8088 110.482 85.8088 110.482 82.5944C111.549 82.5944 112.616 82.5944 113.715 82.5944C115.064 84.0917 115.064 84.0917 116.292 86.0599C116.703 86.7031 117.115 87.3464 117.539 88.0092C120.251 92.8123 119.868 98.1397 119.373 103.488C117.302 110.626 112.516 114.898 106.34 118.705C100.435 120.841 93.1732 120.506 87.4978 117.952C83.2131 115.499 79.5693 111.93 77.3441 107.505C76.8506 103.187 78.0424 101.303 80.5771 97.8625C81.7741 96.5525 83.0106 95.2773 84.2801 94.0366C85.0086 93.3203 85.7371 92.6039 86.4876 91.8659C86.8733 91.4904 87.2589 91.1149 87.6562 90.728C88.8775 89.5383 90.0931 88.343 91.3074 87.1462C94.7584 83.7469 98.2196 80.3578 101.684 76.9715C103.81 74.8922 105.93 72.8069 108.046 70.718C108.848 69.9298 109.651 69.144 110.457 68.3607C118.687 60.3635 125.755 51.9054 126.092 39.9544C125.983 31.8491 122.776 24.773 116.948 19.1115C108.944 13.1496 100.944 11.8616 91.0844 12.6828C85.4013 14 81.5122 16.7548 77.3441 20.7186C76.2772 20.1883 75.2103 19.6579 74.1111 19.1115C75.9236 14.4528 80.3921 12.5372 84.6184 10.2721C95.0377 5.75576 106.4 7.34453 115.989 13.2353Z" fill="#D5CFC9" style="fill:#D5CFC9;fill:color(display-p3 0.8353 0.8118 0.7882);fill-opacity:1;"/>
<path d="M60.6752 46C61.7357 46.5359 62.7962 47.0717 63.8889 47.6238C60.0853 52.2671 55.9779 56.4754 51.7089 60.681C50.2779 62.105 48.8473 63.5296 47.4172 64.9546C45.183 67.1774 42.946 69.3969 40.7002 71.6079C38.5189 73.7579 36.3508 75.9209 34.1844 78.0863C33.1837 79.0623 33.1837 79.0623 32.1629 80.058C27.0918 85.159 22.9714 90.5365 22.4124 97.9622C22.7404 103.368 24.7505 107.797 28.413 111.733C32.8708 115.313 37.1681 115.645 42.7458 115.383C47.5009 114.721 50.4025 113.142 53.8462 109.836C55.3677 107.146 55.5961 105.892 55.0513 102.834C52.7008 98.7511 49.8839 95.9794 46.3235 92.9639C43.4532 90.4609 40.827 87.7112 38.1795 84.9717C38.7098 83.8999 39.24 82.8282 39.7863 81.724C43.912 83.5635 46.6783 86.766 49.8291 89.9446C50.4391 90.5412 51.0491 91.1377 51.6776 91.7524C55.3697 95.4639 57.9305 98.7411 59.8718 103.646C59.8718 108.091 58.6904 110.833 55.8547 114.2C48.8036 119.807 43.1045 120.613 34.1624 119.884C31.7003 119.164 29.8168 118.129 27.7351 116.636C26.4674 115.782 26.4674 115.782 25.1742 114.911C21.3394 111.523 18.4572 105.354 17.9026 100.265C17.6393 91.4409 21.1806 86.3616 26.9317 80.1002C29.541 77.3672 32.1972 74.6839 34.8623 72.0065C35.6033 71.2588 36.3443 70.5111 37.1078 69.7407C39.0568 67.7742 41.0081 65.8102 42.9601 63.8467C44.9599 61.8341 46.9574 59.8191 48.955 57.8044C52.8595 53.8673 56.7665 49.9328 60.6752 46Z" fill="#D5CFC9" style="fill:#D5CFC9;fill:color(display-p3 0.8353 0.8118 0.7882);fill-opacity:1;"/>
<path d="M62.1529 15.628C65.2188 18.2243 67.8678 21.0838 70.4307 24.1665C72.5554 26.6869 74.8326 28.9276 77.4586 30.9229C79.8348 32.8944 81.721 35.0719 83.7266 37.4073C85.9701 39.956 88.3918 42.3109 90.8236 44.6796C93.7713 47.6143 96.719 50.5491 99.6667 53.4838C99.1361 54.5404 98.6055 55.5969 98.0588 56.6854C93.3434 52.8088 89.0959 48.5919 84.8352 44.2294C83.3593 42.7343 81.8828 41.2398 80.4058 39.7459C78.1009 37.413 75.7999 35.0766 73.5115 32.7277C71.2871 30.4452 69.0425 28.1828 66.7974 25.9205C65.7907 24.8773 65.7907 24.8773 64.7637 23.813C58.0599 17.1084 50.5139 12.6026 40.8807 12.464C32.2873 12.5692 26.3348 14.7265 20.0795 20.6679C13.8315 27.2145 12.3045 34.576 12.5083 43.4477C13.3028 50.1454 16.1893 55.8802 20.8834 60.6873C20.3529 61.7438 19.8223 62.8004 19.2756 63.8889C14.1351 61.9092 11.7057 56.2715 9.53449 51.5173C6.54596 42.9735 7.25512 34.3924 10.866 26.1894C15.0904 17.845 22.4673 11.6357 31.4348 8.61209C42.49 5.9676 53.0904 9.04946 62.1529 15.628Z" fill="#D5CFC9" style="fill:#D5CFC9;fill:color(display-p3 0.8353 0.8118 0.7882);fill-opacity:1;"/>
<path d="M67.8205 53.6667C70.4652 54.8127 72.1809 56.2703 74.1971 58.317C74.7901 58.9151 75.383 59.5131 75.994 60.1293C76.6052 60.7537 77.2164 61.3781 77.8462 62.0214C78.4695 62.6518 79.0929 63.2823 79.7352 63.9319C81.2715 65.4867 82.804 67.0451 84.3333 68.6068C81.1343 72.4529 77.7719 76.0561 74.2094 79.5662C73.7431 80.029 73.2769 80.4917 72.7965 80.9684C71.6639 82.0919 70.5288 83.2129 69.3932 84.3333C63.7646 79.752 58.7574 74.5528 53.6667 69.3932C54.7883 66.8308 56.157 65.1451 58.145 63.1886C58.9889 62.3523 58.9889 62.3523 59.8498 61.4992C60.4366 60.9255 61.0235 60.3518 61.6282 59.7607C62.2212 59.1748 62.8141 58.5889 63.4251 57.9853C64.8867 56.5421 66.3519 55.1028 67.8205 53.6667Z" fill="#D5CFC9" style="fill:#D5CFC9;fill:color(display-p3 0.8353 0.8118 0.7882);fill-opacity:1;"/>
<path d="M50.3375 20.3717C55.9383 23.8947 60.4694 28.7414 65.0846 33.4356C65.8655 34.2241 66.6467 35.0121 67.4283 35.7999C69.4655 37.8551 71.4978 39.915 73.5291 41.9761C75.6104 44.0861 77.6962 46.1914 79.7817 48.2971C83.859 52.4154 87.9311 56.5387 92 60.6654C91.4712 61.7291 90.9424 62.7929 90.3976 63.8889C87.5519 62.672 85.7456 61.0082 83.5829 58.8036C82.8742 58.0855 82.1656 57.3673 81.4354 56.6275C81.0605 56.2437 80.6856 55.86 80.2993 55.4646C79.1205 54.2582 77.9366 53.057 76.7513 51.857C73.8086 48.8756 70.8746 45.8855 67.9403 42.8956C65.4593 40.3683 62.975 37.8443 60.4862 35.3246C59.3233 34.1445 58.1653 32.9596 57.0074 31.7744C56.2962 31.0538 55.585 30.3331 54.8523 29.5906C54.2304 28.9566 53.6084 28.3226 52.9677 27.6694C48.3039 23.445 44.109 22.4785 37.994 22.5689C33.2509 23.0719 29.955 25.2748 26.8022 28.783C23.6149 32.9123 22.6952 36.3489 22.7806 41.5636C23.4695 46.3114 26.1005 50.2887 28.7051 54.2184C27.6475 55.0162 26.5899 55.814 25.5003 56.636C20.9598 51.8153 18.1907 46.3929 17.8889 39.6623C18.2045 33.1191 21.2018 28.107 25.5504 23.3748C32.7272 16.942 41.8395 16.4737 50.3375 20.3717Z" fill="#D5CFC9" style="fill:#D5CFC9;fill:color(display-p3 0.8353 0.8118 0.7882);fill-opacity:1;"/>
<path d="M102.421 28.432C105.996 30.2465 108.203 32.1423 109.72 35.9783C110.311 41.3895 109.374 44.0618 106.476 48.5555C102.818 47.3669 101.005 45.51 98.3659 42.6862C97.585 41.8755 96.8024 41.0665 96.0183 40.2592C93.827 37.9937 91.6357 35.7283 89.4444 33.4629C90.2555 30.9474 90.2555 30.9474 91.8269 29.5325C95.3961 27.9511 98.594 27.8613 102.421 28.432Z" fill="#D5CFC9" style="fill:#D5CFC9;fill:color(display-p3 0.8353 0.8118 0.7882);fill-opacity:1;"/>
<path d="M104.62 89.4444C109.61 94.1027 109.61 94.1027 109.889 98.1775C109.836 101.303 109.239 103.112 107.149 105.598C104.009 108.305 101.86 109.505 97.6117 109.889C93.9418 109.591 92.2255 108.68 89.4444 106.406C89.4444 103.983 89.4444 103.983 90.8375 102.373C91.7911 101.478 91.7911 101.478 92.764 100.566C93.4487 99.9177 94.1334 99.2696 94.8388 98.6018C95.5626 97.9287 96.2863 97.2556 97.0321 96.5621C98.1178 95.5384 98.1178 95.5384 99.2254 94.494C101.018 92.8053 102.816 91.1225 104.62 89.4444Z" fill="#D5CFC9" style="fill:#D5CFC9;fill:color(display-p3 0.8353 0.8118 0.7882);fill-opacity:1;"/>
<path d="M44.2157 28.3019C46.9281 29.3567 46.9281 29.3567 48.5555 30.8336C48.5555 34.2092 48.5556 34.2092 47.201 35.9094C46.5829 36.4927 45.9647 37.0761 45.3278 37.6771C44.6621 38.3135 43.9963 38.9499 43.3104 39.6056C42.6067 40.2615 41.9029 40.9175 41.1778 41.5933C40.474 42.2624 39.7702 42.9314 39.0452 43.6207C37.3043 45.2735 35.5559 46.9178 33.8 48.5555C31.0562 47.3995 30.3345 46.877 28.5922 44.336C27.9343 40.4737 27.6666 36.6376 29.6975 33.1609C34.0625 28.1717 37.6073 27.737 44.2157 28.3019Z" fill="#D5CFC9" style="fill:#D5CFC9;fill:color(display-p3 0.8353 0.8118 0.7882);fill-opacity:1;"/>
<path d="M31.8084 89.4444C32.361 89.4444 32.9137 89.4444 33.4831 89.4444C34.605 90.5497 34.605 90.5497 35.9428 92.13C39.8802 96.6287 44.2176 100.717 48.5555 104.848C47.7182 107.281 47.7182 107.281 45.1014 108.649C41.9573 109.819 39.3761 110.129 35.9952 109.713C32.3624 107.887 29.9638 106.14 28.4589 102.416C27.9026 98.4462 27.7558 94.8403 30.029 91.3699C30.6162 90.7345 31.2034 90.0991 31.8084 89.4444Z" fill="#D5CFC9" style="fill:#D5CFC9;fill:color(display-p3 0.8353 0.8118 0.7882);fill-opacity:1;"/>
</svg>
