<svg width="138" height="138" viewBox="0 0 138 138" fill="none" xmlns="http://www.w3.org/2000/svg">
<path fill-rule="evenodd" clip-rule="evenodd" d="M61.5684 6.55257C62.6562 7.37856 63.7334 8.21899 64.7952 9.07824C66.3064 10.2109 67.8157 11.0205 69.5259 11.8133L71.0457 10.5061C79.0099 3.86294 86.9942 0.124942 97.4978 0.238396L99.2508 0.219358C109.932 0.258163 119.355 4.90112 126.99 12.2417C134.892 20.911 138.352 30.8781 137.964 42.556C137.696 45.842 137.176 48.4769 136.131 51.6148L135.499 53.5535C133.837 58.2127 131.599 61.7272 128.405 65.4965C127.036 67.0747 127.036 67.0748 126.384 69.4848L126.383 69.4849L126.384 69.4851C127.628 71.5213 127.628 71.5213 129.379 73.6478C136.277 82.7862 138.856 92.1618 137.755 103.6C135.691 114.855 130.182 124.546 120.698 131.218C110.704 137.324 99.8396 139.11 88.3219 137.364C81.1655 135.529 75.1652 130.951 69.5259 126.344C66.95 127.529 64.8308 129.005 62.571 130.71C53.8449 136.906 44.3068 138.491 33.7868 137.716C23.3296 135.646 14.4883 130.625 7.79476 122.283C0.748692 111.189 -1.68305 99.6216 1.16666 86.6981C3.38761 80.4688 6.97451 75.4535 11.0438 70.2972L12.6683 67.8603H11.0438C1.82948 57.1898 -0.338965 46.927 0.311174 33.2014C1.12061 24.3585 6.53706 15.7594 13.0637 9.92066C26.7102 -1.2423 46.5398 -3.83984 61.5684 6.55257ZM70.4308 24.1665C67.8679 21.0837 65.2188 18.2242 62.153 15.628C53.0905 9.04942 42.4901 5.96756 31.4348 8.61205C22.4674 11.6357 15.0905 17.8449 10.866 26.1893C7.2552 34.3923 6.54604 42.9735 9.53457 51.5172L9.74342 51.9752C11.8637 56.6277 14.2993 61.9724 19.2757 63.8888L20.8835 60.6873C16.1893 55.8801 13.3029 50.1454 12.5084 43.4477C12.3046 34.5759 13.8316 27.2145 20.0796 20.6679C26.3348 14.7264 32.2874 12.5692 40.8808 12.4639C50.514 12.6026 58.0599 17.1084 64.7638 23.813L66.7975 25.9204C69.0426 28.1828 71.2871 30.4452 73.5116 32.7276C75.8 35.0766 78.101 37.413 80.4059 39.7459C81.8829 41.2398 83.3594 42.7342 84.8352 44.2293C89.096 48.5919 93.3434 52.8088 98.0589 56.6854L99.6667 53.4838L90.8237 44.6795L90.7483 44.6061C88.3418 42.2621 85.947 39.9296 83.7267 37.4073C81.7211 35.0718 79.8349 32.8943 77.4587 30.9229C74.8327 28.9276 72.5555 26.6868 70.4308 24.1665ZM129.88 32.7723C127.86 24.4587 122.84 18.2469 115.989 13.2352C106.4 7.34449 95.0377 5.75572 84.6184 10.272C84.1819 10.506 83.7429 10.7362 83.3044 10.9661L83.3042 10.9662C79.4973 12.9621 75.7365 14.934 74.1112 19.1114L77.3442 20.7186C81.5123 16.7547 85.4014 13.9999 91.0844 12.6828C100.944 11.8616 108.944 13.1495 116.948 19.1114C122.776 24.773 125.983 31.8491 126.092 39.9543C125.755 51.9054 118.687 60.3635 110.457 68.3607C109.651 69.144 108.848 69.9298 108.046 70.718C105.93 72.8068 103.81 74.8922 101.684 76.9715C98.2197 80.3578 94.7585 83.7468 91.3074 87.1462C90.0932 88.343 88.8776 89.5382 87.6563 90.728L86.4877 91.8658L84.2802 94.0366C83.0107 95.2773 81.7742 96.5524 80.5772 97.8624C78.0425 101.303 76.8506 103.187 77.3442 107.505C79.5694 111.93 83.2132 115.499 87.4978 117.952C93.1733 120.506 100.435 120.841 106.34 118.705C112.516 114.898 117.302 110.626 119.373 103.488C119.868 98.1397 120.251 92.8123 117.539 88.0091L116.292 86.0598L116.292 86.0596L116.291 86.0587C115.635 85.0067 115.329 84.5172 114.981 84.0605C114.678 83.6632 114.342 83.2907 113.715 82.5944H110.482V82.5945C110.482 85.8087 110.482 85.8087 111.366 87.1616C112.698 88.8125 113.649 90.3008 114.524 92.2374C115.318 99.2675 114.986 105.094 110.482 110.72C107.625 113.524 105.071 114.618 101.071 115.07C94.9432 115.202 90.3877 115.041 85.4804 111.059L84.2648 109.715C82.9194 108.444 82.9193 108.444 82.1937 106.702C82.3492 103.512 82.6305 101.583 84.5394 98.9792L86.5781 96.9994C87.7532 95.8371 88.9306 94.6789 90.124 93.5351C90.9784 92.7168 91.8281 91.8938 92.6734 91.0662C94.8974 88.877 97.1287 86.6956 99.372 84.5258C103.022 80.9968 106.656 77.4514 110.283 73.8989C111.56 72.6476 112.839 71.3985 114.125 70.156L114.738 69.5652C117.733 66.6778 120.722 63.7959 123.387 60.5977C129.828 52.1397 131.195 43.1768 129.88 32.7723ZM119.575 34.0261C118.037 29.4091 115.338 25.0112 111.422 22.0383C100.644 15.656 90.6924 16.5857 81.8033 25.1775L83.4106 27.5907C84.7614 27.0837 86.0972 26.5373 87.4289 25.9819C88.4147 25.4086 89.4027 24.8391 90.3923 24.2725C94.8186 22.0237 99.3696 22.0749 104.105 23.3675L105.913 24.373C108.416 25.6406 108.416 25.6406 110.735 27.5907L110.735 27.5907C114.979 31.995 115.201 36.4957 115.208 42.4222C114.179 48.9025 110.765 52.8614 106.255 57.3559L104.152 59.4029C101.892 61.6443 99.633 63.8853 97.3605 66.1132C94.2785 69.1339 91.2094 72.1676 88.1412 75.2023L85.9189 77.4018C80.5589 82.6965 75.3032 88.0412 70.273 93.6512L68.9449 95.1618C66.3116 91.0124 63.3164 87.6879 59.8521 84.1922L57.6436 81.9895L55.4258 79.7302L53.2958 77.5966L51.3555 75.6472L51.3554 75.6472C50.5411 74.9757 50.1173 74.6262 49.6308 74.4443C49.1029 74.247 48.5012 74.247 47.2464 74.247L46.6368 75.6268C46.4428 77.4646 46.4428 77.4646 47.776 79.2302L49.7673 81.1285L51.9286 83.2307C53.4502 84.6716 54.9676 86.117 56.4805 87.567L58.6576 89.6754C62.1317 92.9742 65.4447 96.1476 66.0725 101.054L65.9815 103.759C65.8581 109.397 64.4046 113.284 60.9085 117.686C55.9215 122.008 49.6495 125.295 43.0618 126.009C34.9781 126.226 27.8701 124.488 21.5297 119.294C14.655 112.202 12.3642 105.173 12.4543 95.5199C12.72 85.7312 18.5301 79.0754 25.2291 72.532C26.0974 71.6847 26.9621 70.8336 27.8233 69.979C30.0875 67.723 32.3581 65.474 34.639 63.2349C36.9982 60.9193 39.3485 58.595 41.6954 56.2669C46.2606 51.7366 50.8364 47.2174 55.4223 42.7081L56.8902 41.2658L53.6756 38.0481C49.2727 42.4043 44.8748 46.7653 40.4845 51.1341L39.9344 51.6817L39.9285 51.6877L39.9265 51.6896C37.8678 53.7392 35.8092 55.7888 33.7447 57.8325C31.5454 60.007 29.3478 62.183 27.1574 64.3664C26.318 65.2043 25.478 66.0416 24.6375 66.8784C24.2742 67.2363 23.9102 67.5935 23.5462 67.9507L23.5456 67.9513C20.3053 71.1313 17.0698 74.3066 14.3327 77.9444C8.31291 86.9008 6.45155 95.4743 8.42017 106.223L9.47496 108.837C12.0114 115.174 15.3542 119.873 20.726 124.121C29.2991 130.193 37.8188 131.19 48.0501 129.752C56.9926 127.566 62.8863 122.21 68.1162 114.873L68.9449 113.663C72.1066 118.41 75.426 121.585 80.0453 124.976L82.607 126.534C86.6859 129.247 90.5302 129.964 95.3521 130.136C105.69 130.229 113.523 128.21 121.182 120.903C126.952 114.812 130.184 107.513 130.333 99.1285C130.285 89.5144 128.21 81.3008 121.182 74.247H118.771L117.164 76.6602C120.913 80.9295 123.699 85.0327 125.483 90.4579C127.461 99.1537 125.115 106.697 121.182 114.468C117.034 120.189 110.464 124.051 103.59 125.51C95.1674 126.603 87.6397 125.27 80.6449 120.319C75.7004 116.226 72.5973 112.22 71.9178 105.72C71.799 101.011 72.0201 97.9401 75.2234 94.3203L77.0067 92.5534L79.0322 90.5342C80.5231 89.0642 82.0103 87.5904 83.4943 86.1133C85.079 84.5356 86.6659 82.9602 88.2551 81.387C91.4514 78.2232 94.6445 75.0561 97.8328 71.8842C98.5931 71.1276 99.3537 70.3713 100.115 69.6153C105.444 64.3493 110.692 59.0373 115.557 53.3321C120.184 47.2587 120.197 41.4457 119.575 34.0261ZM60.6753 46L63.889 47.6238C60.0854 52.267 55.978 56.4754 51.709 60.6809C50.278 62.105 48.8474 63.5295 47.4173 64.9546C45.1831 67.1774 42.946 69.3969 40.7003 71.6078C38.5189 73.7579 36.3509 75.9208 34.1845 78.0863L32.163 80.0579C27.0919 85.1589 22.9715 90.5365 22.4125 97.9622C22.7405 103.368 24.7506 107.797 28.413 111.733C32.8708 115.313 37.1682 115.645 42.7459 115.383C47.501 114.721 50.4026 113.142 53.8462 109.836C55.3678 107.146 55.5961 105.892 55.0514 102.834C52.7009 98.7511 49.884 95.9794 46.3236 92.9639C43.6276 90.6129 41.1469 88.0442 38.6617 85.4708L38.1796 84.9716L39.7864 81.724C43.3686 83.3211 45.9261 85.946 48.6002 88.6905C49.0058 89.1068 49.4142 89.5259 49.8292 89.9446L51.6776 91.7523C55.3697 95.4639 57.9306 98.7411 59.8719 103.646C59.8719 108.091 58.6905 110.833 55.8548 114.2C48.8036 119.807 43.1046 120.613 34.1625 119.884C31.7004 119.164 29.8169 118.129 27.7352 116.636L25.1743 114.911C21.3394 111.523 18.4572 105.354 17.9027 100.265C17.6394 91.4408 21.1807 86.3616 26.9317 80.1002C29.5411 77.3672 32.1973 74.6839 34.8624 72.0065L37.1079 69.7407C39.0568 67.7742 41.0082 65.8101 42.9601 63.8466C44.7927 62.0023 46.6234 60.156 48.454 58.3097L48.4541 58.3097L48.4541 58.3096L48.4542 58.3096L48.4542 58.3095L48.4543 58.3095L48.4543 58.3095L48.4544 58.3094L48.4544 58.3094L48.4598 58.304L48.9551 57.8044C52.8596 53.8673 56.7666 49.9328 60.6753 46ZM67.8206 53.6666C70.4653 54.8127 72.181 56.2703 74.1972 58.317L75.9941 60.1292L77.8462 62.0213L79.7352 63.9318C81.2716 65.4867 82.8041 67.0451 84.3334 68.6068C81.1343 72.4528 77.772 76.0561 74.2095 79.5662L72.7965 80.9684C71.6639 82.0919 70.5288 83.2128 69.3932 84.3333C64.2744 80.1668 59.6695 75.4894 55.0483 70.7954L55.0466 70.7937C54.587 70.3268 54.1272 69.8598 53.6667 69.3931C54.7884 66.8307 56.1571 65.145 58.1451 63.1885L59.8498 61.4992L61.6283 59.7606L63.4252 57.9853C64.8868 56.5421 66.352 55.1028 67.8206 53.6666ZM63.8419 32.1677C59.6466 27.8811 55.4352 23.5781 50.3376 20.3716C41.8396 16.4737 32.7273 16.942 25.5505 23.3748C21.2019 28.1069 18.2046 33.119 17.889 39.6622C18.1908 46.3929 20.9599 51.8153 25.5004 56.636L28.7052 54.2183C26.1006 50.2886 23.4696 46.3113 22.7807 41.5636C22.6953 36.3488 23.615 32.9123 26.8023 28.7829C29.9551 25.2748 33.251 23.0718 37.9941 22.5689C44.1091 22.4784 48.304 23.445 52.9677 27.6694L54.8524 29.5906L57.0075 31.7744C58.1654 32.9595 59.3233 34.1444 60.4863 35.3246C62.975 37.8442 65.4594 40.3682 67.9404 42.8956L68.1949 43.1549L68.1951 43.1552L68.1954 43.1554L68.1956 43.1556L68.1958 43.1558L68.1961 43.1561L68.1963 43.1563C71.0452 46.0593 73.8942 48.9622 76.7514 51.857C77.9367 53.057 79.1205 54.2582 80.2994 55.4646L81.4355 56.6274L83.583 58.8035C85.7456 61.0082 87.552 62.6719 90.3977 63.8888L92.0001 60.6653C87.9312 56.5387 83.859 52.4153 79.7818 48.2971L79.2712 47.7815C77.3559 45.8477 75.4406 43.9139 73.5292 41.9761C71.4979 39.915 69.4656 37.855 67.4284 35.7998C66.6468 35.0121 65.8656 34.224 65.0847 33.4356C64.6764 33.0203 64.2688 32.6038 63.861 32.1872L63.8441 32.17L63.8419 32.1677ZM102.421 28.432C105.997 30.2465 108.203 32.1423 109.721 35.9783C110.312 41.3895 109.374 44.0618 106.476 48.5555C102.818 47.3669 101.005 45.51 98.366 42.6861C97.585 41.8755 96.8025 41.0665 96.0184 40.2591L89.4445 33.4628C89.8923 32.0742 90.0928 31.4521 90.447 30.9354C90.7345 30.5162 91.1231 30.1663 91.827 29.5325C95.3961 27.9511 98.5941 27.8613 102.421 28.432ZM109.889 98.1775C109.61 94.1026 109.61 94.1026 104.62 89.4444C102.816 91.1224 101.018 92.8053 99.2254 94.494L97.0321 96.5621L94.8388 98.6018L92.7641 100.566L90.8376 102.373C89.4445 103.983 89.4445 103.983 89.4445 106.406C92.2255 108.68 93.9419 109.591 97.6117 109.889C101.86 109.505 104.01 108.305 107.149 105.598C109.239 103.112 109.836 101.303 109.889 98.1775ZM44.2158 28.3018C46.9282 29.3567 46.9282 29.3567 48.5556 30.8335C48.5556 34.2091 48.5556 34.2091 47.2011 35.9093L45.3279 37.6771L43.3105 39.6055L41.1779 41.5933L39.0452 43.6207C37.3044 45.2734 35.5559 46.9178 33.8001 48.5555C31.0563 47.3995 30.3345 46.8769 28.5923 44.336C27.9344 40.4737 27.6667 36.6376 29.6976 33.1609C34.0626 28.1716 37.6074 27.737 44.2158 28.3018ZM33.4832 89.4444H31.8084L30.029 91.3699C27.7559 94.8402 27.9027 98.4462 28.459 102.416C29.9638 106.14 32.3625 107.887 35.9952 109.713C39.3762 110.129 41.9573 109.819 45.1015 108.649C47.7183 107.281 47.7183 107.281 48.5556 104.848L47.8835 104.208C43.7706 100.293 39.6769 96.3963 35.9429 92.13L35.9428 92.1299C34.6051 90.5497 34.6051 90.5496 33.4832 89.4444Z" fill="black" style="fill:black;fill-opacity:1;"/>
</svg>
